<svg
    version="1.1"
    id="Layer_1"
    xmlns="http://www.w3.org/2000/svg"
    xmlns:xlink="http://www.w3.org/1999/xlink"
    viewBox="0 0 200 200"
    width="200"
    height="200"
    fill="none"
    stroke="white"
    stroke-width="3"
>
    <!-- Globe -->
    <circle cx="100" cy="100" r="60" stroke="white" stroke-width="3" fill="none"/>
    
    <!-- Longitudinal Lines -->
    <path d="M100,40 A60,60 0 0,1 100,160" stroke="white" fill="none"/>
    <path d="M80,40 A80,80 0 0,1 80,160" stroke="white" fill="none"/>
    <path d="M120,40 A80,80 0 0,1 120,160" stroke="white" fill="none"/>

    <!-- Latitudinal Lines -->
    <path d="M40,100 H160" stroke="white"/>
    <path d="M60,70 A50,50 0 0,1 140,70" stroke="white" fill="none"/>
    <path d="M60,130 A50,50 0 0,0 140,130" stroke="white" fill="none"/>

    <!-- Curved Arrow -->
    <path d="M30,140 C90,200 180,160 180,80" stroke="white" fill="none" stroke-width="4"/>
    <polygon points="180,80 175,85 185,85" fill="white"/>

    <!-- Airplane -->
    <path d="M170,50 L180,50 L175,40 L190,30 L170,35 L160,20 L155,35 L140,40 L155,45 L160,60 L170,50" fill="white"/>

    <!-- Eggshell Text -->
    <text x="50" y="190" fill="#F0EAD6" font-size="16" font-family="Arial">Flight Path</text>
</svg>
